<svg width="268" height="258" viewBox="0 0 268 258" fill="none" xmlns="http://www.w3.org/2000/svg">
<g filter="url(#filter0_d_1_8)">
<ellipse cx="134" cy="125" rx="130" ry="125" fill="#3FA599"/>
</g>
<g filter="url(#filter1_d_1_8)">
<ellipse cx="134.5" cy="125" rx="114.5" ry="109" fill="#FFFEFE"/>
</g>
<path d="M132.312 32.1152V45H129.544V35.2441C129.392 35.3789 129.21 35.5078 128.999 35.6309C128.794 35.748 128.574 35.8564 128.34 35.9561C128.105 36.0498 127.862 36.1318 127.61 36.2021C127.358 36.2666 127.109 36.3135 126.863 36.3428V34.0049C127.584 33.7939 128.264 33.5244 128.902 33.1963C129.541 32.8682 130.118 32.5078 130.634 32.1152H132.312ZM139.124 42.6973H144.468V45H136.083V44.0508C136.083 43.4062 136.191 42.8291 136.408 42.3193C136.625 41.8037 136.897 41.3438 137.226 40.9395C137.554 40.5293 137.911 40.1689 138.298 39.8584C138.69 39.542 139.062 39.2578 139.414 39.0059C139.783 38.7422 140.105 38.4902 140.381 38.25C140.662 38.0098 140.896 37.7725 141.084 37.5381C141.277 37.2979 141.421 37.0576 141.515 36.8174C141.608 36.5713 141.655 36.3105 141.655 36.0352C141.655 35.4961 141.503 35.0889 141.198 34.8135C140.894 34.5381 140.428 34.4004 139.801 34.4004C138.717 34.4004 137.68 34.8311 136.689 35.6924V33.249C137.785 32.54 139.021 32.1855 140.398 32.1855C141.037 32.1855 141.608 32.2705 142.112 32.4404C142.622 32.6045 143.053 32.8418 143.404 33.1523C143.756 33.4629 144.022 33.8408 144.204 34.2861C144.392 34.7256 144.485 35.2178 144.485 35.7627C144.485 36.3428 144.395 36.8584 144.213 37.3096C144.037 37.7607 143.8 38.1709 143.501 38.54C143.208 38.9092 142.868 39.249 142.481 39.5596C142.095 39.8643 141.693 40.1602 141.277 40.4473C140.996 40.6465 140.724 40.8457 140.46 41.0449C140.202 41.2383 139.974 41.4316 139.774 41.625C139.575 41.8125 139.417 41.9971 139.3 42.1787C139.183 42.3604 139.124 42.5332 139.124 42.6973Z" fill="#3FA599"/>
<path d="M223.352 121.587V119.17C224.195 119.785 225.18 120.093 226.305 120.093C227.014 120.093 227.564 119.94 227.957 119.636C228.355 119.331 228.555 118.906 228.555 118.361C228.555 117.799 228.309 117.365 227.816 117.061C227.33 116.756 226.659 116.604 225.804 116.604H224.635V114.477H225.716C227.356 114.477 228.177 113.932 228.177 112.842C228.177 111.816 227.547 111.304 226.287 111.304C225.443 111.304 224.623 111.576 223.826 112.121V109.854C224.711 109.408 225.742 109.186 226.92 109.186C228.209 109.186 229.211 109.476 229.926 110.056C230.646 110.636 231.007 111.389 231.007 112.314C231.007 113.961 230.172 114.992 228.502 115.408V115.452C229.393 115.563 230.096 115.889 230.611 116.428C231.127 116.961 231.385 117.617 231.385 118.396C231.385 119.574 230.954 120.506 230.093 121.191C229.231 121.877 228.042 122.22 226.524 122.22C225.224 122.22 224.166 122.009 223.352 121.587Z" fill="#3FA599"/>
<path d="M140.079 216.808C140.079 217.429 139.971 218.009 139.754 218.548C139.537 219.087 139.235 219.556 138.849 219.954C138.462 220.347 138.002 220.657 137.469 220.886C136.936 221.108 136.353 221.22 135.72 221.22C135.011 221.22 134.375 221.088 133.812 220.824C133.256 220.561 132.784 220.18 132.397 219.682C132.011 219.178 131.715 218.562 131.51 217.836C131.305 217.109 131.202 216.286 131.202 215.366C131.202 214.282 131.334 213.301 131.598 212.422C131.867 211.537 132.248 210.781 132.74 210.154C133.238 209.527 133.839 209.044 134.542 208.704C135.245 208.358 136.036 208.186 136.915 208.186C137.888 208.186 138.644 208.3 139.183 208.528V210.849C138.544 210.485 137.847 210.304 137.091 210.304C136.622 210.304 136.197 210.395 135.816 210.576C135.436 210.758 135.107 211.016 134.832 211.35C134.562 211.684 134.349 212.088 134.19 212.562C134.038 213.031 133.956 213.556 133.944 214.136H133.997C134.595 213.31 135.477 212.896 136.643 212.896C137.164 212.896 137.636 212.99 138.058 213.178C138.479 213.365 138.84 213.632 139.139 213.978C139.438 214.317 139.669 214.728 139.833 215.208C139.997 215.688 140.079 216.222 140.079 216.808ZM137.363 216.983C137.363 215.63 136.81 214.953 135.702 214.953C135.45 214.953 135.222 215 135.017 215.094C134.812 215.188 134.636 215.319 134.489 215.489C134.343 215.659 134.229 215.861 134.146 216.096C134.07 216.324 134.032 216.579 134.032 216.86C134.032 217.171 134.073 217.461 134.155 217.73C134.237 218 134.352 218.237 134.498 218.442C134.65 218.642 134.829 218.8 135.034 218.917C135.239 219.034 135.468 219.093 135.72 219.093C135.972 219.093 136.197 219.043 136.396 218.943C136.602 218.838 136.774 218.694 136.915 218.513C137.062 218.325 137.173 218.103 137.249 217.845C137.325 217.581 137.363 217.294 137.363 216.983Z" fill="#3FA599"/>
<path d="M45.877 115.092C45.877 116.211 45.7539 117.213 45.5078 118.098C45.2617 118.977 44.9014 119.721 44.4268 120.33C43.958 120.939 43.3838 121.408 42.7041 121.736C42.0244 122.059 41.2539 122.22 40.3926 122.22C39.3613 122.22 38.4736 122.056 37.7295 121.728V119.442C38.3916 119.876 39.1885 120.093 40.1201 120.093C41.0752 120.093 41.8223 119.768 42.3613 119.117C42.9004 118.467 43.1729 117.526 43.1787 116.296L43.126 116.278C42.5693 117.104 41.7227 117.518 40.5859 117.518C40.0703 117.518 39.5928 117.421 39.1533 117.228C38.7197 117.034 38.3418 116.768 38.0195 116.428C37.7031 116.082 37.4541 115.672 37.2725 115.197C37.0967 114.723 37.0088 114.201 37.0088 113.633C37.0088 112.971 37.1172 112.367 37.334 111.822C37.5508 111.277 37.8525 110.809 38.2393 110.416C38.6318 110.023 39.1006 109.722 39.6455 109.511C40.1904 109.294 40.7939 109.186 41.4561 109.186C42.1416 109.186 42.7568 109.32 43.3018 109.59C43.8467 109.854 44.3096 110.237 44.6904 110.741C45.0771 111.245 45.3701 111.863 45.5693 112.596C45.7744 113.328 45.877 114.16 45.877 115.092ZM43.0732 113.615C43.0732 113.293 43.0322 112.991 42.9502 112.71C42.8682 112.423 42.7539 112.177 42.6074 111.972C42.4609 111.767 42.2822 111.605 42.0713 111.488C41.8604 111.365 41.6289 111.304 41.377 111.304C41.1367 111.304 40.9141 111.356 40.709 111.462C40.5098 111.567 40.3369 111.714 40.1904 111.901C40.0439 112.083 39.9297 112.303 39.8477 112.561C39.7656 112.818 39.7246 113.097 39.7246 113.396C39.7246 113.724 39.7656 114.017 39.8477 114.274C39.9297 114.526 40.0439 114.74 40.1904 114.916C40.3428 115.092 40.5244 115.227 40.7354 115.32C40.9463 115.408 41.1807 115.452 41.4385 115.452C41.6846 115.452 41.9072 115.405 42.1064 115.312C42.3057 115.212 42.4756 115.08 42.6162 114.916C42.7627 114.752 42.874 114.559 42.9502 114.336C43.0322 114.113 43.0732 113.873 43.0732 113.615Z" fill="#3FA599"/>
<defs>
<filter id="filter0_d_1_8" x="0" y="0" width="268" height="258" filterUnits="userSpaceOnUse" color-interpolation-filters="sRGB">
<feFlood flood-opacity="0" result="BackgroundImageFix"/>
<feColorMatrix in="SourceAlpha" type="matrix" values="0 0 0 0 0 0 0 0 0 0 0 0 0 0 0 0 0 0 127 0" result="hardAlpha"/>
<feOffset dy="4"/>
<feGaussianBlur stdDeviation="2"/>
<feComposite in2="hardAlpha" operator="out"/>
<feColorMatrix type="matrix" values="0 0 0 0 0 0 0 0 0 0 0 0 0 0 0 0 0 0 0.25 0"/>
<feBlend mode="normal" in2="BackgroundImageFix" result="effect1_dropShadow_1_8"/>
<feBlend mode="normal" in="SourceGraphic" in2="effect1_dropShadow_1_8" result="shape"/>
</filter>
<filter id="filter1_d_1_8" x="16" y="16" width="237" height="226" filterUnits="userSpaceOnUse" color-interpolation-filters="sRGB">
<feFlood flood-opacity="0" result="BackgroundImageFix"/>
<feColorMatrix in="SourceAlpha" type="matrix" values="0 0 0 0 0 0 0 0 0 0 0 0 0 0 0 0 0 0 127 0" result="hardAlpha"/>
<feOffset dy="4"/>
<feGaussianBlur stdDeviation="2"/>
<feComposite in2="hardAlpha" operator="out"/>
<feColorMatrix type="matrix" values="0 0 0 0 0 0 0 0 0 0 0 0 0 0 0 0 0 0 0.25 0"/>
<feBlend mode="normal" in2="BackgroundImageFix" result="effect1_dropShadow_1_8"/>
<feBlend mode="normal" in="SourceGraphic" in2="effect1_dropShadow_1_8" result="shape"/>
</filter>
</defs>
</svg>
